<svg width="226" height="22" viewBox="0 0 226 22" fill="none" xmlns="http://www.w3.org/2000/svg">
<g clip-path="url(#clip0_1802_409)">
<path d="M97.1833 1.11804C99.0477 1.11804 100.576 1.65576 101.844 2.74972C103.112 3.8437 103.764 5.25288 103.764 6.99582C103.764 9.98107 102.012 12.4472 99.2714 13.6339L102.329 21.0321H96.7545L94.126 14.3941H91.7771L90.6213 21.0321H85.4199L88.9247 1.11804H97.1833ZM93.3617 5.53101L92.5415 9.99965H95.6548C97.1833 9.99965 98.507 8.96116 98.507 7.32962C98.507 6.2356 97.7426 5.53101 96.475 5.53101H93.3617Z" fill="#3AB06D"/>
<path d="M67.9364 1.00415H83.6335L83.1861 3.60001C83.0182 4.69399 82.0861 5.63962 80.9116 5.63962H67.0415C65.9789 5.69525 65.1587 6.36274 64.8789 7.28991L65.1587 5.63962L65.6059 3.04375C65.7738 1.89417 66.7246 1.00415 67.9364 1.00415Z" fill="#3AB06D"/>
<path d="M21.2551 3.93366L17.6011 7.40102C16.8181 6.08453 15.4944 5.41701 13.6674 5.41701C9.67786 5.41701 7.29166 8.06858 7.29166 12.4814C7.29166 15.1886 8.95084 16.8389 11.5048 16.8389C13.276 16.8389 14.8792 16.1714 16.2214 14.8548L19.0552 18.9896C17.0045 20.6954 14.3944 21.5855 11.244 21.5855C8.4102 21.5855 6.13582 20.8067 4.47662 19.2121C2.81744 17.6175 1.97852 15.4666 1.97852 12.7597C1.97852 9.49618 3.13435 6.64078 5.46468 4.26742C7.79501 1.89406 10.6286 0.688838 13.9472 0.688838C17.4332 0.670302 19.3721 1.72719 21.2551 3.93366Z" fill="#3AB06D"/>
<path d="M55.2974 1.00415C57.1804 1.00415 58.7276 1.56041 60.014 2.65437C61.2818 3.74835 61.9528 5.19462 61.9528 6.9561C61.9528 9.9969 60.1818 12.463 57.4041 13.6868L60.5174 21.1962H54.8686L52.2027 14.4655H49.8164L48.6607 21.1962H43.3848L46.9269 1.00415H55.2974ZM51.4197 5.47275L50.5808 9.9969H53.7502C55.2974 9.9969 56.6398 8.94003 56.6398 7.28992C56.6398 6.19588 55.8567 5.47275 54.589 5.47275H51.4197Z" fill="#3AB06D"/>
<path d="M66.5575 8.79138H82.2546L81.8071 11.3871C81.6392 12.4811 80.7072 13.4267 79.5327 13.4267H65.6626C64.6 13.4825 63.7798 14.1498 63.5 15.077L63.7798 13.4267L64.2272 10.8308C64.3949 9.66268 65.4017 8.79138 66.5575 8.79138Z" fill="#3AB06D"/>
<path d="M62.457 21.1962L62.9045 18.6002C63.0722 17.5062 64.0043 16.6163 65.1787 16.6163H80.8758L80.4284 19.2121C80.2607 20.3061 79.3286 21.2517 78.1542 21.2517H62.457V21.1962Z" fill="#3AB06D"/>
<path d="M41.8191 21.1962L36.2263 7.95728L33.2806 0.948364L31.1741 4.10048L19.7461 21.1404H25.022H25.9727L32.2367 11.7583L36.2263 21.1404L41.8191 21.1962Z" fill="#3AB06D"/>
<path d="M113.612 5.73192L113.202 8.60599H120.827L120.193 13.2971H112.549L112.121 16.4305H120.845L120.174 21.1773H106.006L108.877 0.929565H123.008L122.318 5.71339H113.612V5.73192Z" fill="#05406B"/>
<path d="M144.373 0.948364L133.43 21.196H130.149L124.91 0.948364H130.988L132.237 8.21677L132.982 12.8523L135.126 8.21677L138.538 0.948364H144.373Z" fill="#05406B"/>
<path d="M151.493 5.73192L151.083 8.60599H158.708L158.074 13.2971H150.43L150.001 16.4305H158.726L158.055 21.1773H143.887L146.758 0.929565H160.889L160.199 5.71339H151.493V5.73192Z" fill="#05406B"/>
<path d="M182.105 5.49073L179.774 21.4181H176.754L168.962 10.2003L167.396 21.2142H161.971L164.86 0.725464H167.936L175.729 11.6838L176.661 5.50926H182.105V5.49073Z" fill="#05406B"/>
<path d="M185.31 12.1292L186.895 0.948364H192.432L190.773 12.5557C190.511 14.4283 190.996 16.5606 193.644 16.5606C196.309 16.5606 197.464 14.4283 197.726 12.5557L199.385 0.948364H204.921L203.338 12.1292C202.461 18.3036 198.471 21.4556 193.028 21.4556C187.678 21.4742 184.434 18.3036 185.31 12.1292Z" fill="#05406B"/>
<path d="M213.873 5.73192L213.463 8.60599H221.088L220.453 13.2971H212.811L212.381 16.4305H221.106L220.434 21.1773H206.266L209.138 0.929565H223.269L222.578 5.71339H213.873V5.73192Z" fill="#05406B"/>
<path d="M188.983 1.13354L186.242 5.84318H191.705L188.983 1.13354Z" fill="#05406B"/>
<path d="M180.031 0.484212L175.02 5.55145L183.862 5.67725L180.031 0.484212Z" fill="#05406B"/>
<path d="M97.1833 1.11804C99.0477 1.11804 100.576 1.65576 101.844 2.74972C103.112 3.8437 103.764 5.25288 103.764 6.99582C103.764 9.98107 102.012 12.4472 99.2714 13.6339L102.329 21.0321H96.7545L94.126 14.3941H91.7771L90.6213 21.0321H85.4199L88.9247 1.11804H97.1833ZM93.3617 5.53101L92.5415 9.99965H95.6548C97.1833 9.99965 98.507 8.96116 98.507 7.32962C98.507 6.2356 97.7426 5.53101 96.475 5.53101H93.3617Z" fill="#05406B"/>
</g>
<defs>
<clipPath id="clip0_1802_409">
<rect width="225.556" height="21" fill="white" transform="translate(0 0.5)"/>
</clipPath>
</defs>
</svg>
