<svg width="150" height="18" viewBox="0 0 150 18" fill="none" xmlns="http://www.w3.org/2000/svg">
<path d="M56.9244 0.309326H70.3615L69.9769 2.51503C69.8544 3.4869 69.0346 4.24749 68.0332 4.25171H56.1722C55.2933 4.27707 54.5666 4.87286 54.3384 5.68415L54.5877 4.25171L54.9806 2.03333C55.099 1.06146 55.9187 0.309326 56.9244 0.309326Z" fill="#42BA78"/>
<path d="M17.0175 2.8306L13.899 5.8307C13.2145 4.67291 12.1032 4.1067 10.5186 4.1067C7.09177 4.1067 5.05931 6.39691 5.05931 10.1787C5.05931 12.5197 6.5002 13.9141 8.65098 13.9141C10.1848 13.9141 11.5328 13.3479 12.6694 12.2112L15.078 15.7775C13.3286 17.2649 11.1102 18.0001 8.389 18.0001C5.95511 18.0001 4.04096 17.3156 2.62542 15.9465C1.20988 14.5521 0.5 12.7098 0.5 10.4154C0.5 7.60541 1.49299 5.17152 3.5001 3.11371C5.50721 1.05589 7.91997 0.0206447 10.7764 0.0206447C13.7131 0.0164192 15.4118 0.916449 17.0175 2.8306Z" fill="#42BA78"/>
<path d="M46.1409 0.309157C47.7466 0.309157 49.0946 0.782412 50.1805 1.7247C51.2918 2.67121 51.8327 3.90083 51.8327 5.40933C51.8327 8.03336 50.2988 10.1588 47.9579 11.1983L50.6031 17.6717H45.7818L43.4915 11.9081H41.4379L40.4238 17.6717H35.9321L38.9787 0.304932H46.1409V0.309157ZM42.807 4.15858L42.0971 8.05871H44.7888C46.1367 8.05871 47.248 7.13756 47.248 5.71779C47.248 4.75015 46.5635 4.15858 45.4987 4.15858H42.807Z" fill="#42BA78"/>
<path d="M85.1363 2.03246L82.3475 5.41286C81.4263 4.53818 80.1713 4.09028 78.6375 4.09028C77.2895 4.09028 76.3219 4.51705 76.3219 5.43821C76.3219 6.09739 76.8881 6.47768 78.8487 6.85375C82.6052 7.58476 83.9996 9.19467 83.9996 11.7215C83.9996 16.1625 80.2178 17.9837 76.4149 17.9837C73.5077 17.9837 71.2386 17.1344 69.6118 15.4315L72.4006 12.0046C72.8274 12.5962 73.4401 13.0441 74.2683 13.399C75.0965 13.7286 75.9458 13.8934 76.774 13.8934C78.498 13.8934 79.3727 13.4202 79.3727 12.499C79.3727 11.8145 78.7811 11.4384 76.774 11.0328C73.4443 10.3482 71.7879 8.74255 71.7879 6.19035C71.7879 4.41987 72.4514 2.92827 73.7739 1.77048C75.1176 0.591569 76.7952 0 78.8487 0C81.5193 0 83.5982 0.68453 85.1363 2.03246Z" fill="#05406B"/>
<path d="M101.971 0.307617L101.286 4.25423H95.9918L93.6298 17.6744H89.1381L91.5001 4.25423H86.2056L86.8901 0.307617H101.971Z" fill="#05406B"/>
<path d="M132.1 2.80995L128.981 5.81005C128.297 4.65227 127.185 4.08605 125.601 4.08605C122.174 4.08605 120.142 6.37627 120.142 10.1581C120.142 12.499 121.582 13.8934 123.733 13.8934C125.267 13.8934 126.615 13.3272 127.752 12.1905L130.16 15.7569C128.411 17.2442 126.192 17.9795 123.471 17.9795C121.037 17.9795 119.123 17.2949 117.708 15.9259C116.292 14.5315 115.582 12.6892 115.582 10.3947C115.582 7.58476 116.575 5.15088 118.582 3.09306C120.589 1.03947 123.002 0 125.863 0C128.791 0 130.494 0.895804 132.1 2.80995Z" fill="#05406B"/>
<path d="M141.073 8.4755L149.427 0.307617H144.124L137.651 6.65008L138.766 0.307617H134.312L131.253 17.6702H135.711L136.658 12.3122L137.604 11.3784L141.521 17.6702H146.803L141.073 8.4755Z" fill="#05406B"/>
<path d="M55.7447 7.01855H69.1818L68.7972 9.22426C68.6747 10.1961 67.855 10.9567 66.8535 10.9609H54.9926C54.1137 10.9863 53.3869 11.5821 53.1587 12.3934L53.408 10.9609L53.801 8.74256C53.9193 7.77069 54.739 7.01855 55.7447 7.01855Z" fill="#42BA78"/>
<path d="M52.2253 17.6714L52.6183 15.453C52.7408 14.4811 53.5606 13.729 54.5663 13.729H68.0033L67.6188 15.9347C67.4963 16.9066 66.6765 17.6672 65.6751 17.6714H52.2253Z" fill="#42BA78"/>
<path d="M34.6114 17.6786L29.8155 6.31627L27.2802 0.307617L25.4717 3.02461L15.7192 17.6702V17.6744H20.2109V17.6702H21.0307L26.4055 9.6037L29.8113 17.6744L34.6114 17.6786Z" fill="#42BA78"/>
<path d="M115.466 17.371L110.666 6.00865L108.135 0L106.322 2.71699L96.5698 17.3626V17.3668H101.062V17.3626H101.885L107.256 9.29609L110.662 17.3668L115.466 17.371Z" fill="#05406B"/>
</svg>
